<?xml version="1.0" encoding="utf-8"?>
<!-- Generator: Adobe Illustrator 19.1.0, SVG Export Plug-In . SVG Version: 6.00 Build 0)  -->
<svg version="1.1" id="cog8" xmlns="http://www.w3.org/2000/svg" xmlns:xlink="http://www.w3.org/1999/xlink" x="0px" y="0px"
	 viewBox="28 -29 96 96" style="enable-background:new 28 -29 96 96;" xml:space="preserve">
<g>
	<g>
		<path d="M109.4,31.4c1.3-3.6,2-7.4,2.1-11.4c0.5-0.1,0.9-0.3,1.4-0.4c4.9-1.6,9.1-3.1,11-4.4l-1.5-8.8c-2-0.5-6-0.6-10.5-0.5
			c-0.9,0-1.8,0.1-2.7,0.1c-1.3-3.4-3.1-6.6-5.3-9.4c0.5-0.8,1-1.6,1.5-2.4c2.4-3.9,4.1-7.2,4.6-9.3l-6.7-5.5
			c-1.9,0.9-4.7,3.1-8.1,6.1c-0.6,0.6-1.3,1.2-2,1.9c-3.1-1.7-6.5-3-10.1-3.7c-0.1-0.9-0.2-1.9-0.4-2.7c-0.7-4.6-1.4-7.9-2.2-9.8
			h-8.8c-0.9,1.9-1.6,5.2-2.2,9.8c-0.1,0.9-0.2,1.8-0.4,2.7c-3.6,0.7-7,2-10.1,3.7c-0.7-0.6-1.4-1.3-2-1.9c-3.4-3.1-6.2-5.2-8.1-6.1
			l-6.6,5.4c0.5,2,2.2,5.4,4.6,9.3c0.5,0.8,1,1.6,1.5,2.4c-2.2,2.8-4,6-5.3,9.4c-0.9,0-1.9-0.1-2.8-0.1C35.7,5.7,31.7,6,29.6,6.5
			l-1.5,8.3c1.9,1.3,6,3.1,10.9,4.7c0.4,0.1,0.9,0.3,1.4,0.4c0.1,4,0.8,7.8,2.1,11.4c-0.1,0-0.1,0.1-0.2,0.1c-3,2.4-6.3,5.1-9.9,8
			L37,47c4.3-1.7,8.2-3.2,11.7-4.6c0.1,0,0.1,0,0.2-0.1c2.6,3.2,5.8,5.9,9.4,8c0,0.1,0,0.1,0,0.2c-0.7,3.8-1.5,7.5-2.4,12.1l8.2,2.9
			c2.2-4.1,4-7.3,5.8-10.7c0-0.1,0.1-0.1,0.1-0.2c2,0.4,4,0.6,6.1,0.6s4.1-0.2,6.1-0.6c0,0.1,0.1,0.1,0.1,0.2
			c1.8,3.4,3.6,6.6,5.8,10.7l8.2-2.9c-0.9-4.6-1.6-8.3-2.3-12.1c0-0.1,0-0.1,0-0.2c3.6-2.1,6.7-4.8,9.4-8c0.1,0,0.1,0,0.2,0.1
			c3.5,1.4,7.4,2.9,11.7,4.6l4.4-7.5c-2-1.7-5.4-4.4-9.9-8C109.5,31.4,109.4,31.4,109.4,31.4z M76,43c-13.3,0-24-10.8-24-24
			S62.7-5,76-5s24,10.8,24,24S89.3,43,76,43z"/>
	</g>
</g>
<path d="M76,7c6.6,0,12,5.4,12,12s-5.4,12-12,12s-12-5.4-12-12S69.4,7,76,7z"/>
</svg>
