<svg xmlns="http://www.w3.org/2000/svg" xmlns:xlink="http://www.w3.org/1999/xlink" version="1.1" x="0px" y="0px" viewBox="910 550 100 100" enable-background="new 910 550 100 100" xml:space="preserve"><g><path d="M944.364,614.679c-0.681,0.003-1.32,0.271-1.799,0.755s-0.741,1.125-0.738,1.806c0.007,1.399,1.15,2.537,2.549,2.537h0.013   c0.681-0.004,1.319-0.271,1.798-0.756c0.479-0.483,0.741-1.125,0.738-1.806C946.918,615.816,945.774,614.679,944.364,614.679z    M945.134,617.979c-0.201,0.202-0.468,0.314-0.753,0.315h-0.005c-0.585,0-1.064-0.476-1.067-1.062   c-0.001-0.285,0.108-0.554,0.309-0.756c0.201-0.203,0.468-0.315,0.759-0.316c0.585,0,1.064,0.477,1.067,1.062   C945.445,617.507,945.335,617.775,945.134,617.979z"></path><path d="M965.669,614.679c-0.681,0.003-1.319,0.271-1.799,0.755c-0.479,0.483-0.741,1.125-0.737,1.806   c0.007,1.399,1.149,2.537,2.548,2.537h0.013c0.681-0.004,1.32-0.271,1.799-0.756c0.479-0.483,0.741-1.125,0.738-1.806   C968.224,615.816,967.08,614.679,965.669,614.679z M966.439,617.979c-0.2,0.202-0.468,0.314-0.753,0.315h-0.006   c-0.585,0-1.063-0.476-1.066-1.062c-0.002-0.285,0.108-0.554,0.309-0.756c0.2-0.203,0.468-0.315,0.759-0.316   c0.585,0,1.064,0.477,1.066,1.062C966.75,617.507,966.641,617.775,966.439,617.979z"></path><path d="M986.986,619.776h0.013c0.681-0.004,1.319-0.271,1.799-0.756c0.479-0.483,0.741-1.125,0.737-1.806   c-0.007-1.398-1.15-2.536-2.561-2.536c-0.682,0.003-1.32,0.271-1.799,0.755c-0.479,0.483-0.741,1.125-0.738,1.806   C984.444,618.639,985.588,619.776,986.986,619.776z M986.229,616.477c0.2-0.203,0.468-0.315,0.758-0.316   c0.586,0,1.064,0.477,1.067,1.062c0.001,0.285-0.108,0.554-0.309,0.757c-0.201,0.202-0.468,0.314-0.753,0.315h-0.006   c-0.585,0-1.064-0.476-1.066-1.062C985.918,616.947,986.027,616.679,986.229,616.477z"></path><path d="M980.679,608.519h6.271c0.188,0,0.357-0.072,0.488-0.188l0.006,0.006l12.312-11.073c0.155-0.141,0.245-0.341,0.245-0.551   c0-0.21-0.09-0.411-0.245-0.551l-6.114-5.498c-0.281-0.253-0.709-0.253-0.99,0l-6.034,5.426h-4.596v-2.414   c0-0.409-0.332-0.741-0.741-0.741h-7.232c-0.409,0-0.74,0.332-0.74,0.741v2.414H958.11c-0.28-1.858-1.562-3.391-3.273-4.031v-7.089   h3.954c0.409,0,0.741-0.332,0.741-0.741v-8.643c0-0.409-0.332-0.741-0.741-0.741h-11.483c-0.409,0-0.741,0.332-0.741,0.741v8.643   c0,0.409,0.332,0.741,0.741,0.741h3.953v7.089c-1.71,0.643-2.993,2.178-3.272,4.031h-3.574c-0.409,0-0.741,0.332-0.741,0.741v6.713   l-6.557,3.983l-8.636-8.637c0.749-1.298,0.573-2.988-0.536-4.097l-2.925-2.925c-0.29-0.29-0.758-0.29-1.048,0   c-0.289,0.29-0.289,0.758,0,1.047l2.925,2.925c0.746,0.747,0.746,1.96,0,2.707c-0.361,0.361-0.842,0.56-1.353,0.56   s-0.992-0.199-1.353-0.56l-2.925-2.925c-0.29-0.29-0.759-0.29-1.048,0c-0.29,0.289-0.29,0.758,0,1.047l2.925,2.925   c0.641,0.642,1.494,0.995,2.401,0.995c0.702,0,1.37-0.214,1.934-0.606l9.002,9.002c0.143,0.144,0.333,0.218,0.524,0.218   c0.132,0,0.265-0.035,0.384-0.108l6.285-3.816v2.498c0,0.409,0.332,0.741,0.741,0.741h4.942l-3.178,1.706   c-0.356-0.092-0.724-0.157-1.099-0.193c-0.007-0.403-0.335-0.728-0.74-0.728c-0.001,0-0.002,0-0.003,0   c-0.406,0.002-0.733,0.329-0.737,0.733c-1.407,0.149-2.724,0.702-3.816,1.603c-0.291-0.279-0.753-0.275-1.039,0.013   s-0.285,0.75-0.002,1.038c-0.89,1.101-1.43,2.424-1.565,3.832c-0.404,0.008-0.729,0.338-0.727,0.743s0.33,0.732,0.734,0.736   c0.155,1.438,0.733,2.749,1.606,3.811c-0.284,0.291-0.281,0.757,0.008,1.044c0.145,0.143,0.333,0.214,0.521,0.214   c0.189,0,0.378-0.072,0.523-0.217c1.069,0.863,2.387,1.43,3.826,1.569c0.007,0.403,0.335,0.728,0.739,0.728   c0.001,0,0.003,0,0.004,0c0.405-0.002,0.732-0.329,0.736-0.733c1.407-0.149,2.725-0.702,3.816-1.603   c0.144,0.138,0.328,0.207,0.512,0.207c0.191,0,0.381-0.073,0.526-0.22c0.285-0.288,0.285-0.75,0.002-1.038   c0.89-1.101,1.43-2.423,1.565-3.832c0.404-0.008,0.729-0.338,0.727-0.743s-0.33-0.732-0.734-0.736   c-0.154-1.437-0.733-2.749-1.606-3.811c0.284-0.291,0.281-0.757-0.008-1.044s-0.756-0.285-1.044,0.003   c-0.298-0.241-0.615-0.457-0.949-0.648l4.532-2.434h19.531l-3.438,2.089c-0.685-0.302-1.422-0.501-2.196-0.576   c-0.007-0.403-0.335-0.729-0.739-0.729c-0.001,0-0.003,0-0.004,0c-0.405,0.003-0.732,0.33-0.736,0.734   c-1.407,0.149-2.725,0.702-3.815,1.603c-0.291-0.279-0.754-0.275-1.039,0.013c-0.285,0.287-0.285,0.75-0.002,1.038   c-0.89,1.101-1.43,2.423-1.565,3.832c-0.404,0.008-0.729,0.338-0.727,0.743s0.33,0.732,0.734,0.736   c0.155,1.437,0.733,2.749,1.606,3.811c-0.284,0.291-0.281,0.757,0.008,1.043c0.145,0.144,0.333,0.215,0.521,0.215   c0.189,0,0.379-0.072,0.523-0.217c1.069,0.863,2.387,1.429,3.826,1.569c0.007,0.403,0.335,0.728,0.739,0.728   c0.001,0,0.003,0,0.004,0c0.405-0.002,0.732-0.33,0.736-0.733c1.406-0.149,2.725-0.702,3.815-1.603   c0.144,0.138,0.328,0.207,0.513,0.207c0.19,0,0.381-0.073,0.526-0.22c0.285-0.288,0.284-0.75,0.002-1.038   c0.89-1.101,1.431-2.424,1.565-3.832c0.404-0.008,0.729-0.338,0.727-0.743s-0.329-0.732-0.733-0.736   c-0.154-1.437-0.733-2.749-1.607-3.811c0.285-0.291,0.282-0.757-0.008-1.044c-0.289-0.287-0.756-0.285-1.044,0.002   c-0.06-0.048-0.119-0.094-0.18-0.141l4.04-2.453c0.452,0.72,1.25,1.201,2.159,1.201h0.012c0.95-0.005,1.776-0.532,2.211-1.307   l4.188,2.544c-0.084,0.063-0.166,0.128-0.247,0.195c-0.291-0.279-0.753-0.275-1.039,0.012c-0.285,0.288-0.284,0.751-0.002,1.039   c-0.89,1.101-1.431,2.423-1.565,3.831c-0.404,0.008-0.729,0.338-0.727,0.744c0.002,0.405,0.33,0.732,0.734,0.736   c0.154,1.437,0.732,2.749,1.605,3.81c-0.284,0.292-0.281,0.758,0.009,1.044c0.145,0.144,0.333,0.215,0.521,0.215   c0.189,0,0.378-0.072,0.522-0.217c1.069,0.863,2.387,1.429,3.826,1.569c0.008,0.403,0.336,0.728,0.739,0.728   c0.001,0,0.003,0,0.004,0c0.405-0.002,0.732-0.33,0.736-0.734c1.407-0.148,2.725-0.701,3.816-1.602   c0.143,0.137,0.327,0.207,0.512,0.207c0.19,0,0.382-0.073,0.526-0.22c0.285-0.288,0.285-0.75,0.003-1.039   c0.89-1.1,1.43-2.423,1.565-3.831c0.404-0.008,0.729-0.338,0.727-0.743s-0.33-0.733-0.734-0.736   c-0.154-1.438-0.732-2.75-1.606-3.811c0.284-0.291,0.281-0.758-0.008-1.044c-0.29-0.287-0.757-0.286-1.045,0.002   c-1.069-0.863-2.387-1.429-3.825-1.569c-0.008-0.403-0.336-0.728-0.74-0.728c-0.001,0-0.002,0-0.004,0   c-0.405,0.002-0.732,0.33-0.735,0.734c-0.736,0.077-1.446,0.268-2.114,0.558L980.679,608.519z M948.169,613.397   c0.145,0.143,0.333,0.214,0.521,0.214c0.046,0,0.093-0.004,0.138-0.013c0.682,0.834,1.135,1.862,1.261,2.987   c-0.196,0.135-0.324,0.36-0.322,0.615c0.001,0.255,0.131,0.479,0.329,0.611c-0.111,1.103-0.534,2.137-1.226,3.001   c-0.234-0.044-0.484,0.025-0.664,0.206c-0.18,0.182-0.246,0.434-0.2,0.666c-0.857,0.701-1.888,1.134-2.989,1.255   c-0.133-0.195-0.357-0.323-0.611-0.323c-0.001,0-0.002,0-0.003,0c-0.255,0.002-0.48,0.132-0.612,0.329   c-1.127-0.114-2.159-0.559-3-1.232c0.041-0.231-0.027-0.479-0.208-0.657c-0.18-0.178-0.428-0.244-0.659-0.2   c-0.682-0.835-1.135-1.863-1.261-2.988c0.196-0.134,0.324-0.359,0.322-0.615c-0.001-0.255-0.131-0.479-0.329-0.611   c0.111-1.103,0.534-2.137,1.226-3.001c0.045,0.009,0.091,0.013,0.137,0.013c0.191,0,0.382-0.073,0.526-0.219   c0.18-0.182,0.247-0.433,0.2-0.666c0.857-0.701,1.888-1.134,2.989-1.255c0.134,0.195,0.357,0.322,0.611,0.322   c0.001,0,0.002,0,0.003,0c0.256-0.001,0.48-0.131,0.612-0.328c1.127,0.114,2.159,0.559,3,1.232   C947.92,612.972,947.989,613.219,948.169,613.397z M969.475,613.397c0.145,0.143,0.333,0.214,0.521,0.214   c0.047,0,0.093-0.004,0.139-0.013c0.682,0.834,1.135,1.862,1.261,2.987c-0.196,0.135-0.324,0.36-0.322,0.615   c0.001,0.255,0.131,0.479,0.328,0.611c-0.11,1.103-0.533,2.137-1.226,3.001c-0.233-0.044-0.484,0.025-0.664,0.206   c-0.18,0.182-0.246,0.434-0.2,0.666c-0.857,0.701-1.888,1.134-2.988,1.255c-0.134-0.195-0.357-0.323-0.611-0.323   c-0.001,0-0.003,0-0.004,0c-0.255,0.002-0.479,0.132-0.612,0.329c-1.126-0.114-2.158-0.559-2.999-1.232   c0.041-0.231-0.027-0.479-0.207-0.657c-0.181-0.178-0.429-0.244-0.66-0.2c-0.682-0.835-1.135-1.863-1.261-2.988   c0.196-0.134,0.324-0.359,0.323-0.615c-0.001-0.255-0.131-0.479-0.329-0.611c0.111-1.103,0.534-2.137,1.226-3.001   c0.046,0.009,0.092,0.013,0.138,0.013c0.19,0,0.382-0.073,0.526-0.219c0.18-0.182,0.246-0.433,0.2-0.666   c0.857-0.701,1.888-1.134,2.989-1.255c0.133,0.195,0.357,0.322,0.61,0.322c0.002,0,0.003,0,0.004,0   c0.256-0.001,0.48-0.131,0.612-0.328c1.127,0.114,2.158,0.559,3,1.232C969.226,612.972,969.295,613.219,969.475,613.397z    M987.689,600.914l7.566-6.805l0.623,0.56l-8.189,7.364V600.914z M987.689,606.122v-2.097l9.297-8.36l1.166,1.048L987.689,606.122z    M993.146,592.212l1.002,0.901l-6.459,5.808v-1.801L993.146,592.212z M974.789,594.417h5.75v1.674h-5.75V594.417z M958.05,583.489   h-0.867v-7.161h0.867V583.489z M948.049,576.328h7.653v7.161h-7.653V576.328z M952.742,584.971h0.613v6.775   c-0.102-0.006-0.204-0.011-0.308-0.011c-0.008,0-0.016,0-0.023,0c-0.095,0-0.189,0.004-0.282,0.01V584.971z M953.031,593.217   c0.005,0,0.011,0,0.017,0c1.741,0,3.204,1.233,3.558,2.874h-7.111C949.845,594.46,951.299,593.226,953.031,593.217z    M945.155,607.037v-2.658l2.129-1.293c0.463,0.47,1.105,0.763,1.813,0.763h0.012c0.681-0.004,1.32-0.271,1.799-0.756   c0.479-0.483,0.741-1.125,0.737-1.806c-0.006-1.398-1.15-2.536-2.561-2.536c-0.681,0.003-1.319,0.271-1.799,0.755   c-0.479,0.484-0.741,1.125-0.738,1.807c0.001,0.156,0.018,0.31,0.046,0.459l-1.44,0.874v-5.073h41.053v9.464H978.7   c-0.279-1.105-1.282-1.928-2.481-1.928c-0.402,0.002-0.781,0.1-1.119,0.269l-6.914-4.2c0.002-0.046,0.007-0.091,0.007-0.138   c-0.007-1.398-1.15-2.536-2.562-2.536c-1.405,0.007-2.543,1.156-2.537,2.562c0,0.024,0.004,0.05,0.004,0.074l-10.981,5.897H945.155   z M948.031,601.305c-0.001-0.285,0.108-0.554,0.309-0.756c0.201-0.203,0.468-0.315,0.758-0.316c0.585,0,1.064,0.477,1.067,1.062   c0.001,0.284-0.108,0.553-0.309,0.756c-0.201,0.202-0.468,0.314-0.753,0.316h-0.005   C948.512,602.367,948.034,601.891,948.031,601.305z M966.71,601.048c0.003,0.588-0.474,1.069-1.062,1.072h-0.006   c-0.585,0-1.063-0.477-1.066-1.062c-0.003-0.588,0.474-1.069,1.066-1.072C966.229,599.985,966.707,600.462,966.71,601.048z    M963.591,602.558c0.465,0.631,1.211,1.044,2.052,1.044h0.013c0.82-0.004,1.548-0.399,2.012-1.006l6.326,3.844   c-0.102,0.187-0.179,0.387-0.231,0.598h-18.513L963.591,602.558z M976.236,608.726h-0.005c-0.586,0-1.064-0.477-1.067-1.062   c-0.003-0.588,0.474-1.069,1.067-1.072c0.585,0,1.064,0.477,1.067,1.062C977.301,608.241,976.825,608.723,976.236,608.726z    M986.346,611.514c0.133,0.195,0.357,0.323,0.611,0.323c0.001,0,0.002,0,0.003,0c0.256-0.002,0.48-0.132,0.612-0.329   c1.127,0.115,2.159,0.559,3,1.232c-0.042,0.231,0.027,0.479,0.207,0.657c0.145,0.143,0.333,0.214,0.521,0.214   c0.046,0,0.093-0.004,0.138-0.013c0.683,0.834,1.135,1.862,1.261,2.987c-0.195,0.135-0.323,0.36-0.322,0.615   s0.131,0.479,0.328,0.612c-0.11,1.102-0.533,2.136-1.226,3c-0.233-0.044-0.483,0.025-0.663,0.206   c-0.18,0.182-0.247,0.434-0.2,0.666c-0.857,0.701-1.889,1.134-2.989,1.255c-0.133-0.194-0.357-0.323-0.611-0.323   c-0.001,0-0.002,0-0.003,0c-0.256,0.002-0.48,0.132-0.612,0.329c-1.127-0.114-2.159-0.559-3-1.232   c0.041-0.231-0.027-0.479-0.207-0.657c-0.18-0.178-0.428-0.244-0.659-0.2c-0.683-0.835-1.136-1.863-1.261-2.988   c0.195-0.134,0.323-0.359,0.322-0.615c-0.001-0.255-0.132-0.479-0.329-0.611c0.111-1.103,0.534-2.137,1.227-3.001   c0.045,0.009,0.091,0.013,0.137,0.013c0.191,0,0.382-0.073,0.526-0.219c0.18-0.182,0.247-0.433,0.201-0.666   C984.214,612.067,985.245,611.635,986.346,611.514z"></path><path d="M951.802,577.234c-1.405,0.007-2.543,1.156-2.537,2.561c0.007,1.399,1.15,2.537,2.549,2.537h0.012   c1.405-0.007,2.543-1.156,2.537-2.562C954.356,578.372,953.213,577.234,951.802,577.234z M951.82,580.851h-0.005   c-0.586,0-1.064-0.477-1.067-1.062c-0.002-0.588,0.474-1.069,1.068-1.072c0.585,0,1.064,0.477,1.067,1.062   C952.884,580.367,952.408,580.848,951.82,580.851z"></path><path d="M978.05,600.808h5.556c0.409,0,0.741-0.332,0.741-0.741s-0.332-0.741-0.741-0.741h-5.556c-0.409,0-0.741,0.332-0.741,0.741   S977.641,600.808,978.05,600.808z"></path><path d="M978.05,602.907h5.556c0.409,0,0.741-0.332,0.741-0.741s-0.332-0.741-0.741-0.741h-5.556c-0.409,0-0.741,0.332-0.741,0.741   S977.641,602.907,978.05,602.907z"></path></g></svg>